<svg width="80" height="80" viewBox="0 0 80 80" fill="none" xmlns="http://www.w3.org/2000/svg">
<g filter="url(#filter0_d_5_940)">
<circle cx="40" cy="36" r="30" fill="#0E6946"/>
</g>
<path opacity="0.4" d="M44.8895 24.3333H35.1117C31.565 24.3333 29.5 26.41 29.5 29.9683V42.02C29.5 45.6366 31.565 47.6666 35.1117 47.6666H44.8895C48.4933 47.6666 50.5 45.6366 50.5 42.02V29.9683C50.5 26.41 48.4933 24.3333 44.8895 24.3333Z" fill="white"/>
<path fill-rule="evenodd" clip-rule="evenodd" d="M35.4266 29.7583V29.77C34.9238 29.77 34.5166 30.1783 34.5166 30.68C34.5166 31.1816 34.9238 31.59 35.4266 31.59H38.9138C39.4166 31.59 39.825 31.1816 39.825 30.6671C39.825 30.1666 39.4166 29.7583 38.9138 29.7583H35.4266ZM44.5733 36.8633H35.4266C34.9238 36.8633 34.5166 36.455 34.5166 35.9533C34.5166 35.4516 34.9238 35.0421 35.4266 35.0421H44.5733C45.075 35.0421 45.4833 35.4516 45.4833 35.9533C45.4833 36.455 45.075 36.8633 44.5733 36.8633ZM44.5733 42.195H35.4266C35.0766 42.2416 34.7383 42.0666 34.5516 41.775C34.365 41.4716 34.365 41.0866 34.5516 40.795C34.7383 40.4916 35.0766 40.3283 35.4266 40.3633H44.5733C45.0388 40.41 45.39 40.8066 45.39 41.285C45.39 41.7505 45.0388 42.1483 44.5733 42.195Z" fill="white"/>
<defs>
<filter id="filter0_d_5_940" x="0" y="0" width="80" height="80" filterUnits="userSpaceOnUse" color-interpolation-filters="sRGB">
<feFlood flood-opacity="0" result="BackgroundImageFix"/>
<feColorMatrix in="SourceAlpha" type="matrix" values="0 0 0 0 0 0 0 0 0 0 0 0 0 0 0 0 0 0 127 0" result="hardAlpha"/>
<feOffset dy="4"/>
<feGaussianBlur stdDeviation="5"/>
<feComposite in2="hardAlpha" operator="out"/>
<feColorMatrix type="matrix" values="0 0 0 0 0 0 0 0 0 0 0 0 0 0 0 0 0 0 0.2 0"/>
<feBlend mode="normal" in2="BackgroundImageFix" result="effect1_dropShadow_5_940"/>
<feBlend mode="normal" in="SourceGraphic" in2="effect1_dropShadow_5_940" result="shape"/>
</filter>
</defs>
</svg>
