<svg width="15" height="20" viewBox="0 0 15 20" fill="none" xmlns="http://www.w3.org/2000/svg">
<path d="M6.76776 18.687C1.37584 10.8703 0.375 10.0681 0.375 7.19531C0.375 3.26027 3.56496 0.0703125 7.5 0.0703125C11.435 0.0703125 14.625 3.26027 14.625 7.19531C14.625 10.0681 13.6242 10.8703 8.23224 18.687C7.8784 19.1981 7.12156 19.1981 6.76776 18.687ZM7.5 10.1641C9.1396 10.1641 10.4688 8.83492 10.4688 7.19531C10.4688 5.55571 9.1396 4.22656 7.5 4.22656C5.8604 4.22656 4.53125 5.55571 4.53125 7.19531C4.53125 8.83492 5.8604 10.1641 7.5 10.1641Z" fill="#0E6946"/>
</svg>
