<svg width="201" height="200" viewBox="0 0 201 200" fill="none" xmlns="http://www.w3.org/2000/svg">
<path d="M88.1653 0.504883C49.5591 5.78217 18.2154 31.7097 6.06019 68.1918C-2.65487 94.4253 -0.590778 121.806 12.0996 146.433C26.166 173.738 53.305 193.547 83.8842 198.824C93.1344 200.354 108.959 200.43 117.98 198.824C151.999 192.935 181.279 169.149 194.046 137.026C198.403 126.013 200.238 116.758 200.697 104.062C201.308 84.9415 197.868 69.4921 189.382 53.2013C175.469 26.6619 149.476 7.31181 119.738 1.57564C111.941 0.0459747 95.3513 -0.489395 88.1653 0.504883ZM115.151 3.8701C151.923 9.07091 183.954 37.14 194.351 73.1632C199.397 90.6777 199.091 112.246 193.587 129.301C182.349 164.024 152.993 189.722 117.598 195.918C107.583 197.677 87.0185 197.065 78.227 194.694C71.1938 192.858 63.0903 189.952 57.5861 187.199C45.3544 181.156 31.288 169.302 22.5729 157.6C16.1513 149.034 9.57679 135.038 6.59533 123.871C4.37834 115.305 4.22544 113.928 4.14899 100.62C4.14899 84.9415 5.06637 78.9759 9.80614 66.1268C14.2401 53.8896 24.2548 38.5931 33.5814 29.8741C56.1336 8.76498 84.9544 -0.412918 115.151 3.8701Z" fill="#0E6946"/>
<path d="M68.7874 32.4276C68.0285 34.4104 69.6223 36.6982 72.3545 37.6133C77.5154 39.2911 83.8907 36.7745 83.2076 33.2665C82.9799 32.0463 82.0692 31.8938 76.0734 31.665C70.9125 31.5125 69.0151 31.7413 68.7874 32.4276Z" fill="#0E6946"/>
<path d="M70.685 40.9687C51.104 45.6968 45.0323 71.3965 60.2873 84.8183L63.1714 87.4111L60.1355 89.6989C44.501 101.901 34.6346 119.974 32.5854 139.954C31.8265 147.885 32.3578 150.25 35.0141 150.86C37.291 151.47 51.2557 150.936 51.9388 150.25C52.2424 149.944 52.6219 147.275 52.7737 144.225C54.3675 115.627 78.7299 93.817 106.887 95.876C114.629 96.4098 120.017 97.8588 126.62 101.367C143.089 110.06 152.728 124.855 154.398 144.225C154.701 147.428 155.309 150.326 155.764 150.631C156.675 151.317 170.108 151.393 172.613 150.783C174.814 150.25 175.193 147.275 174.282 138.734C171.398 112.119 153.184 88.7075 128.29 79.5563C121.004 76.8872 110.986 74.9807 104.155 74.9807H99.3735L100.132 72.5404C101.347 68.2698 100.967 60.8726 99.2217 56.3732C95.0475 45.0104 82.297 38.2233 70.685 40.9687ZM84.7257 45.0104C86.1677 45.6205 88.9758 47.6033 90.9491 49.5098C101.271 59.2711 100.057 76.0483 88.3687 83.9031C83.7391 87.1061 79.4889 88.25 74.1762 87.7162C68.6358 87.2586 64.6134 85.0471 60.2873 80.3189C54.5952 73.8368 53.0772 65.9057 56.1131 57.8222C60.515 45.9256 73.3414 40.2061 84.7257 45.0104ZM120.624 80.2427C131.933 83.2168 141.344 88.4788 150.375 97.0962C162.898 108.84 170.867 125.846 171.55 141.785L171.778 147.809L169.349 148.038C167.68 148.19 166.845 147.962 166.769 147.275C166.541 140.259 164.264 130.346 161.153 123.025C150.907 98.3163 126.089 82.683 99.9807 84.3607L93.226 84.8183L95.6547 81.3103L98.1592 77.8023L106.508 78.2599C111.137 78.4887 117.437 79.4038 120.624 80.2427ZM114.704 88.25C126.848 90.614 138.232 97.0962 147.188 106.857C156.599 117.076 161.911 129.049 163.429 143.081L163.961 148.19H160.925H157.813L157.358 143.767C155.84 128.973 151.286 118.83 141.799 109.222C134.589 101.901 128.442 98.0113 119.182 94.9609C114.173 93.3594 111.972 93.0544 103.472 93.0544C94.8957 93.0544 92.8465 93.2831 87.7615 94.9609C71.1404 100.528 58.3899 112.882 52.6978 129.049C51.5593 132.176 50.4968 136.751 50.2691 139.344C50.0414 141.937 49.7378 144.835 49.6619 145.903C49.5102 147.58 49.0548 147.809 46.3225 148.038C42.5278 148.343 42.6037 148.496 44.2734 138.658C50.2691 104.417 81.6899 81.9204 114.704 88.25ZM70.9127 90.309L74.328 91.2241L69.5466 94.4271C56.872 103.044 48.6753 113.797 43.8939 128.363C42.1483 133.625 40.0991 143.92 40.0991 147.504C40.0991 147.962 38.9607 148.19 37.6704 148.038L35.1659 147.809L35.3936 142.09C36.1525 123.406 46.8538 103.731 62.8678 91.5292C65.9036 89.2414 66.2831 89.1651 70.9127 90.309Z" fill="#0E6946"/>
<path d="M75.5424 48.8236C74.7075 49.6624 74.9352 66.4397 75.77 66.9735C76.7567 67.5836 87.1544 60.5676 87.1544 59.2712C87.1544 57.3647 85.7883 57.5935 81.9935 60.1863L78.0469 62.8554V55.5344C78.0469 50.0437 77.8192 48.2897 77.0603 48.2897C76.4531 48.2897 75.77 48.5185 75.5424 48.8236Z" fill="#0E6946"/>
<path d="M96.6413 44.5529C95.8064 45.8493 96.9449 48.976 98.6146 49.8148C100.74 51.035 102.333 50.1961 102.333 47.9846C102.333 45.0867 97.8556 42.4176 96.6413 44.5529Z" fill="#0E6946"/>
</svg>
