<svg width="201" height="200" viewBox="0 0 201 200" fill="none" xmlns="http://www.w3.org/2000/svg">
<path d="M87.5892 0.458008C43.9096 7.10561 11.2454 37.8985 2.14232 80.9169C0.3064 89.8568 0.3064 109.265 2.14232 118.51C13.1579 173.372 65.0227 208.52 119.488 198.205C160.95 190.335 192.696 157.555 199.657 115.378C201.569 104.145 200.957 87.3353 198.204 76.5616C188.259 36.8288 157.278 8.02252 117.117 1.06927C110.921 -0.000442505 92.8675 -0.382492 87.5892 0.458008ZM117.117 4.12566C125.685 5.65384 130.81 7.10561 138.383 10.3148C169.594 23.4572 191.854 52.0342 196.98 85.5015C198.127 93.1424 197.821 109.952 196.444 117.288C192.925 136.084 184.281 152.894 170.894 166.801C156.972 181.395 139.531 191.023 119.565 195.302C110.615 197.212 90.4196 197.135 81.4695 195.225C61.8863 191.023 45.975 182.312 31.7466 168.023C18.1302 154.423 9.48601 138.377 5.27869 119.122C3.28977 110.029 3.28977 90.0096 5.20219 80.9169C9.48601 60.8977 17.4417 46.3036 32.1291 31.5566C41.5382 22.0818 50.2588 15.8927 60.6624 11.3845C67.7001 8.25175 78.5626 4.88974 84.9118 3.82001C91.5671 2.67387 109.85 2.90311 117.117 4.12566Z" fill="#0E6946"/>
<path d="M118.57 66.542C117.346 67.1731 115.205 68.796 113.904 70.0583L111.456 72.4927H91.9495C71.7543 72.4927 69.5359 72.8534 66.3996 76.2796C64.7931 78.0828 63.7987 78.173 47.1224 78.2631L29.6046 78.3533L26.2388 81.0582C22.5669 84.1237 18.5126 91.3368 16.7532 98.1892C16.0647 100.624 15.3762 106.484 15.1467 110.992L14.6877 119.377H100.441C185.046 119.377 186.194 119.377 186.653 117.574C187.264 115.32 185.888 100.624 184.358 93.681C181.68 81.3287 175.713 71.0501 169.135 67.4436C165.31 65.3699 164.774 65.2797 143.049 65.2797C126.45 65.3699 120.253 65.6403 118.57 66.542ZM131.269 71.5009C135.094 74.296 139.454 81.3287 141.902 88.6319C143.585 93.7712 145.727 106.845 145.727 112.255V115.771H124.308H102.889V111.894C102.889 106.033 104.342 97.017 106.331 90.1647C111.609 72.2222 121.936 64.4682 131.269 71.5009ZM167.375 70.1485C175.408 74.1157 182.139 90.4351 183.593 109.189L184.052 115.771H166.534H149.016L148.404 108.378C147.333 93.5007 143.508 81.2385 137.542 73.3943L134.099 68.8862H149.475C160.72 68.8862 165.539 69.2469 167.375 70.1485ZM81.3929 77.8123C86.8242 81.2385 92.485 96.0252 93.4794 109.009L93.9384 115.771H75.4262C59.9738 115.771 56.9905 115.591 56.9905 114.509C56.9905 110.541 58.8264 98.4596 60.0503 94.3121C64.6401 78.8943 72.9018 72.4927 81.3929 77.8123ZM108.243 76.4599C108.243 76.6402 107.172 79.1648 105.948 82.1402C103.042 88.9024 100.9 98.9105 100.211 108.378C99.7522 114.509 99.4462 115.771 98.2987 115.771C97.2278 115.771 96.9218 114.599 96.4628 109.279C95.5448 97.1072 92.485 87.0089 87.5127 79.5254C86.2887 77.7222 85.6003 76.0992 86.0592 75.9189C86.9007 75.5583 108.243 76.0992 108.243 76.4599ZM38.6312 84.0336C43.6035 88.3614 47.5049 98.5498 48.3463 109.73L48.8053 115.771L33.2 115.591L17.6711 115.32L17.9006 110.902C18.5126 98.0088 24.0204 85.4762 30.2166 82.5008C32.6645 81.3287 36.1833 81.9598 38.6312 84.0336ZM61.4273 82.1402C57.22 91.7876 55.3075 99.5416 54.3131 110.541C53.9306 114.238 53.4716 115.771 52.7066 115.771C51.9417 115.771 51.6357 114.689 51.6357 112.345C51.5592 103.509 48.1933 91.3368 43.9095 85.0254L41.5381 81.509H51.6357C57.1435 81.509 61.5803 81.7795 61.4273 82.1402Z" fill="#0E6946"/>
</svg>
