<svg width="201" height="200" viewBox="0 0 201 200" fill="none" xmlns="http://www.w3.org/2000/svg">
<path d="M85.5485 1.13481C71.807 3.1962 56.6913 9.15132 44.5529 17.2442C37.2241 22.0541 23.0245 36.1784 18.215 43.4315C-0.794159 71.9092 -4.45857 106.113 8.13784 137.645C18.902 164.748 41.2702 185.667 69.364 194.982C104.787 206.663 144.255 197.578 170.67 171.619C198.84 143.905 208.077 103.288 194.794 65.9541C178.838 21.4433 132.575 -6.04187 85.5485 1.13481ZM113.184 3.80698C154.867 9.45671 187.312 39.7668 195.939 81.0709C197.847 90.309 198.229 106.037 196.702 115.58C191.74 146.654 170.746 174.215 141.583 188.034C128.224 194.371 116.467 196.89 100.13 196.89C84.4034 196.89 71.1199 193.684 57.1493 186.66C30.8877 173.375 11.8022 148.639 5.6949 119.779C3.71001 110.236 3.3283 93.0575 4.93148 83.8958C12.0313 43.6605 43.3314 12.0525 83.6399 4.49411C92.0375 2.89081 104.558 2.58542 113.184 3.80698Z" fill="#0E6946"/>
<path d="M50.8893 33.8116C50.2786 34.4988 50.1259 50.4555 50.2022 90.0799C50.4312 141.996 50.5076 145.356 51.8054 145.585C53.0269 145.814 53.1032 142.836 53.1032 90.8434V35.7967H94.4042C133.262 35.7967 135.629 35.7203 135.4 34.4224C135.171 33.2009 132.499 33.1245 93.4117 32.9718C59.4396 32.8191 51.5764 32.9718 50.8893 33.8116Z" fill="#0E6946"/>
<path d="M56.9965 39.9195C56.3857 40.683 56.2331 55.7998 56.3094 96.1878L56.5384 151.464L87.3042 151.693L117.994 151.845V153.678C117.994 154.67 118.528 155.663 119.139 155.968C119.826 156.197 129.979 156.35 141.889 156.197L163.417 156.044L163.646 150.089L163.875 144.21H158.989C154.256 144.21 154.18 144.21 153.493 141.691C152.806 139.553 152.347 139.248 149.905 139.019L147.004 138.79V134.896C147.004 132.3 147.462 130.392 148.53 128.941C151.889 124.207 155.401 115.656 155.401 112.144C155.325 105.426 150.973 99.3944 144.713 97.562L141.66 96.6458L141.507 67.9391L141.278 39.2323L99.5952 39.0033C65.0124 38.8506 57.7599 39.0033 56.9965 39.9195ZM138.682 67.481C138.759 81.529 138.759 93.9737 138.835 95.1189C138.911 96.7222 138.453 97.2566 136.85 97.7147C133.796 98.5545 130.666 101.074 129.063 104.052L127.613 106.8L97.763 106.953C71.8831 107.182 67.9897 107.335 67.9897 108.327C67.9897 109.32 71.8068 109.472 97.2286 109.701L126.391 109.854V111.686C126.391 112.679 126.926 114.969 127.536 116.725C128.147 118.481 128.681 120.085 128.681 120.237C128.681 120.39 124.101 120.543 118.452 120.543C112.802 120.543 107.993 120.848 107.764 121.23C106.619 123.062 109.825 123.673 119.902 123.52L130.285 123.368L132.88 127.49C134.942 130.697 135.552 132.453 135.552 135.201V138.79L132.346 139.019C129.292 139.248 129.063 139.401 128.834 141.691L128.605 144.134L123.49 144.363C118.528 144.592 118.375 144.669 118.146 146.654L117.917 148.791H88.5257H59.2104V95.3479V41.9045H98.9082H138.606L138.682 67.481ZM146.24 101.532C149.752 103.517 152.424 108.022 152.5 111.992C152.5 115.046 149.675 121.688 145.935 127.185C144.255 129.628 143.95 130.85 143.95 135.965V141.92H147.309C150.592 141.92 150.744 141.996 150.973 144.363C151.202 146.883 151.202 146.883 156.012 147.112L160.745 147.341V150.318V153.372H140.896H121.047V150.318V147.341L126.239 147.112L131.353 146.883L131.582 144.44C131.812 142.149 132.041 141.996 135.018 141.767L138.224 141.538L138.453 136.347C138.682 131.613 138.453 130.773 136.392 127.567C133.109 122.451 129.445 114.359 129.445 112.297C129.445 111.381 129.979 109.32 130.59 107.793C133.567 100.616 140.056 98.0965 146.24 101.532Z" fill="#0E6946"/>
<path d="M67.9899 54.1964C67.6846 54.6545 67.7609 55.3417 68.1426 55.7234C68.5243 56.1051 81.4261 56.3342 99.3664 56.2578C125.857 56.0288 129.827 55.8761 129.827 54.8836C129.827 53.8911 125.857 53.7384 99.1374 53.5093C77.4563 53.433 68.2953 53.5857 67.9899 54.1964Z" fill="#0E6946"/>
<path d="M68.4481 67.3285C67.9901 67.9393 67.8374 68.6264 68.1428 68.8555C68.3718 69.1608 82.495 69.3899 99.4429 69.3899C125.246 69.3899 130.209 69.2372 130.209 68.321C130.209 67.7102 129.674 67.0231 128.987 66.7941C128.3 66.565 114.635 66.336 98.5268 66.336C75.0135 66.336 69.1352 66.565 68.4481 67.3285Z" fill="#0E6946"/>
<path d="M67.9899 80.9181C67.6846 81.3762 67.7609 82.0633 68.1426 82.4451C68.5243 82.8268 81.4261 83.0559 99.3664 82.9795C125.857 82.7505 129.827 82.5978 129.827 81.6053C129.827 80.6127 125.857 80.46 99.1374 80.231C77.4563 80.1546 68.2953 80.3073 67.9899 80.9181Z" fill="#0E6946"/>
<path d="M67.9898 94.5082C66.7684 96.4933 71.5016 96.875 99.2137 96.875C114.94 96.875 128.3 96.646 128.987 96.4169C129.674 96.1879 130.208 95.5007 130.208 94.89C130.208 93.9738 125.246 93.8211 99.3663 93.8211C80.6626 93.8211 68.2952 94.1265 67.9898 94.5082Z" fill="#0E6946"/>
<path d="M80.6628 126.421L76.922 133.903L75.7006 130.926C75.0135 129.323 74.4791 127.719 74.4791 127.338C74.4791 126.956 73.792 126.65 72.9522 126.65C71.0437 126.65 71.0437 127.414 73.2576 133.14C74.5554 136.499 75.3952 137.797 76.6167 137.95C77.9908 138.179 78.9069 136.805 82.8003 129.094C85.3196 124.055 87.1518 119.779 86.9228 119.474C85.5487 118.099 84.0218 119.703 80.6628 126.421Z" fill="#0E6946"/>
<path d="M120.437 159.251C120.666 160.549 122.345 160.625 140.438 160.854C159.677 161.007 163.112 160.702 161.814 158.64C161.585 158.258 152.119 157.953 140.82 157.953C121.582 157.953 120.208 158.029 120.437 159.251Z" fill="#0E6946"/>
</svg>
