<svg width="201" height="200" viewBox="0 0 201 200" fill="none" xmlns="http://www.w3.org/2000/svg">
<path d="M83.198 1.46605C42.5833 8.6463 10.858 39.7353 2.27524 80.9072C0.129558 90.9902 0.28282 110.239 2.65839 120.628C8.48238 146.981 23.6554 169.133 45.6486 183.57C70.9369 200.222 103.429 204.499 131.936 195.104C165.807 183.952 189.486 158.286 198.681 123.149C200.674 115.434 200.827 113.906 200.751 99.6217C200.751 85.0321 200.597 83.9627 198.375 75.5602C193.394 57.0749 184.888 42.256 171.784 29.3468C159.676 17.3543 147.109 9.63933 131.399 4.67426C116.303 -0.138046 98.9074 -1.28384 83.198 1.46605ZM117.222 4.13954C150.174 9.86848 178.527 32.4787 190.942 62.8802C195.846 74.8728 197.532 82.8933 197.915 96.5663C198.222 105.809 197.992 110.545 197.072 115.816C193.394 136.974 183.968 154.696 168.335 169.744C154.772 182.806 139.139 191.132 120.594 195.18C112.931 196.861 95.459 197.472 88.0257 196.326C66.9521 193.042 49.0204 184.486 34.1539 170.584C20.3602 157.599 11.0878 141.71 6.03017 122.461C4.03776 114.746 3.8845 113.142 3.96113 100.004C3.96113 84.8793 5.1106 77.7754 9.32532 66.5467C21.5097 34.3119 50.4764 10.0976 83.9643 4.29231C92.6236 2.7646 108.869 2.68822 117.222 4.13954Z" fill="#0E6946"/>
<path d="M84.7306 12.2366C84.7306 12.6949 85.9567 14.5282 87.4894 16.2086C97.758 27.5137 94.9226 44.395 81.5887 51.0406C67.7185 57.9153 51.5492 49.1309 49.7101 33.6246C49.2503 29.7289 47.641 28.354 46.6448 30.9511C46.0318 32.6316 47.641 39.5063 49.5568 43.1728C55.3042 54.0196 68.8679 59.2138 80.5159 54.9362C86.723 52.6447 93.1601 46.2282 95.1525 40.3465C97.9879 31.9441 96.4552 22.7778 91.0144 15.5976C88.3323 12.0074 84.7306 10.0978 84.7306 12.2366Z" fill="#0E6946"/>
<path d="M107.49 14.3752C104.655 15.9793 101.743 17.8126 101.053 18.5001C99.9036 19.6458 99.9036 19.7986 101.053 20.2569C102.739 20.868 114.923 14.3752 115.23 12.6947C115.613 10.7087 113.391 11.2434 107.49 14.3752Z" fill="#0E6946"/>
<path d="M137.759 36.2215C135.077 41.6448 134.694 42.867 135.69 43.2489C136.38 43.4781 136.993 43.5545 137.146 43.4017C138.219 42.1795 143.583 30.5689 143.2 30.187C141.898 28.9648 140.748 30.2634 137.759 36.2215Z" fill="#0E6946"/>
<path d="M101.59 36.4505C101.59 37.5199 103.122 38.2837 108.946 39.9642C114.234 41.4919 116.533 41.8739 117.146 41.2628C118.449 39.9642 117.146 39.2768 109.942 37.0616C102.049 34.6936 101.59 34.6936 101.59 36.4505Z" fill="#0E6946"/>
<path d="M151.093 48.2143C147.568 55.4709 139.599 71.7411 133.468 84.3447C127.261 96.872 122.357 107.642 122.433 108.253C123.2 111.92 124.885 108.941 147.798 61.8873C154.465 48.2907 159.753 36.68 159.523 36.1453C158.603 33.6246 157.071 35.8398 151.093 48.2143Z" fill="#0E6946"/>
<path d="M163.814 61.9637C158.68 72.5813 154.465 81.5184 154.465 81.824C154.465 82.2059 155.078 82.4351 155.844 82.4351C156.917 82.4351 159.446 77.9283 166.42 63.6442C171.401 53.3321 175.615 44.395 175.769 43.7839C175.922 43.1728 175.462 42.7145 174.619 42.7145C173.47 42.7145 171.094 47.0685 163.814 61.9637Z" fill="#0E6946"/>
<path d="M38.3686 51.346C34.9968 53.1792 32.1615 55.2417 32.0082 55.9291C31.625 57.8388 33.2343 57.5332 39.1349 54.4778C45.1888 51.2696 47.3345 49.6655 46.7214 48.7489C46.0317 47.6031 44.6524 47.985 38.3686 51.346Z" fill="#0E6946"/>
<path d="M84.7307 58.0679C84.7307 58.6026 86.1867 61.8872 88.0259 65.4009C90.1715 69.6786 91.7042 71.741 92.6237 71.741C94.5395 71.741 94.233 70.5188 90.5547 63.7205C87.6427 58.2971 84.7307 55.4708 84.7307 58.0679Z" fill="#0E6946"/>
<path d="M58.1393 59.7485C57.6795 60.2068 56.4534 63.5678 55.3806 67.1579C53.9246 71.8174 53.6181 73.8798 54.2311 74.5673C54.6143 75.102 55.304 75.4075 55.6105 75.1784C56.3002 74.7965 60.2084 62.4984 60.2084 60.8179C60.2084 59.2138 58.9823 58.6027 58.1393 59.7485Z" fill="#0E6946"/>
<path d="M182.206 77.3171C180.52 79.3796 175.922 89.4625 176.305 90.0736C177.378 91.8304 178.834 90.4555 181.516 85.1085C183.049 81.9003 184.352 78.8449 184.352 78.2338C184.352 76.7061 183.125 76.1714 182.206 77.3171Z" fill="#0E6946"/>
<path d="M51.3961 100.691C47.871 102.295 45.7253 105.045 45.1123 108.864C44.7291 111.156 44.8824 111.461 46.3384 111.461C47.5645 111.461 47.9476 111.003 47.9476 109.628C47.9476 106.955 51.3961 103.212 54.3847 102.601C57.6798 101.99 61.2815 103.823 62.8908 106.878C64.3468 109.628 64.3468 110.927 62.8908 113.753C60.8217 117.801 60.0554 117.954 36.0698 118.336C16.9886 118.642 13.8467 118.871 13.8467 119.864C13.8467 120.857 16.8353 121.01 35.61 121.239C56.3005 121.468 57.4499 121.392 60.5918 119.864C68.7147 115.968 68.7147 104.663 60.5918 100.767C56.6836 98.8577 55.3043 98.8577 51.3961 100.691Z" fill="#0E6946"/>
<path d="M152.933 118.031C147.875 128.343 143.737 137.28 143.737 137.891C143.737 138.426 144.197 138.96 144.81 138.96C145.882 138.96 164.427 102.448 164.427 100.309C164.427 99.6982 163.891 99.2399 163.278 99.2399C162.435 99.2399 158.986 105.503 152.933 118.031Z" fill="#0E6946"/>
<path d="M138.372 108.406C134.924 115.281 134.771 116.045 136.687 116.045C137.606 116.045 138.909 114.212 140.901 110.316C143.967 104.052 144.35 102.295 142.587 102.295C141.974 102.295 140.135 104.893 138.372 108.406Z" fill="#0E6946"/>
<path d="M80.2858 106.649C78.9064 107.26 76.914 108.864 75.9178 110.087C73.9254 112.455 72.0863 117.878 72.8526 119.1C73.9254 120.781 75.2281 119.711 76.1477 116.503C77.3738 111.691 81.3587 108.406 85.9565 108.406C90.2479 108.406 93.543 110.087 95.4588 113.218C98.3708 117.878 96.9148 124.065 92.3169 127.35C90.631 128.496 86.6462 128.725 53.6947 129.03C19.4405 129.412 16.9117 129.489 16.6818 130.711C16.4519 132.009 18.5975 132.086 53.0817 132.086C94.0028 132.086 92.7001 132.239 97.1447 126.662C102.509 120.017 99.7502 109.705 91.8571 106.42C88.562 104.969 83.3511 105.122 80.2858 106.649Z" fill="#0E6946"/>
<path d="M178.834 115.816C177.225 117.649 172.857 126.433 172.857 127.884C172.857 128.496 173.393 129.03 174.006 129.03C175.615 129.03 181.899 116.35 180.826 115.281C180.29 114.746 179.677 114.899 178.834 115.816Z" fill="#0E6946"/>
<path d="M116.916 134.377C113.467 141.252 113.314 142.016 115.23 142.016C116.15 142.016 117.452 140.183 119.445 136.287C122.51 130.023 122.893 128.266 121.131 128.266C120.518 128.266 118.678 130.864 116.916 134.377Z" fill="#0E6946"/>
<path d="M21.8928 141.558C21.8928 142.169 22.4292 142.856 23.1189 143.085C23.8086 143.391 35.2267 143.544 48.4073 143.544C63.9635 143.467 72.9293 143.773 73.9255 144.307C80.8224 147.898 78.0636 158.821 70.3239 158.821C66.4157 158.821 63.5803 156.606 62.4308 152.634C61.358 149.196 59.4422 148.585 59.4422 151.793C59.4422 156.988 64.5765 161.876 70.1706 161.876C80.7457 161.876 85.0371 147.439 76.0712 142.016C73.7723 140.565 72.0864 140.488 47.7942 140.488C26.1842 140.488 21.8928 140.641 21.8928 141.558Z" fill="#0E6946"/>
<path d="M155.921 154.314C152.933 160.272 152.473 163.022 154.695 162.258C155.768 161.8 161.362 151.029 161.362 149.273C161.362 148.661 160.826 148.127 160.213 148.127C159.599 148.127 157.76 150.724 155.921 154.314Z" fill="#0E6946"/>
<path d="M127.108 165.237C123.966 171.501 123.813 172.57 125.882 172.57C127.031 172.57 133.162 160.501 132.549 159.432C131.476 157.751 130.02 159.356 127.108 165.237Z" fill="#0E6946"/>
</svg>
