<svg width="201" height="200" viewBox="0 0 201 200" fill="none" xmlns="http://www.w3.org/2000/svg">
<path d="M86.5097 0.976517C44.137 7.39453 11.4605 38.4149 2.52785 80.8196C1.84073 83.9522 1.07725 90.9815 0.848213 96.4826C-1.13681 145.076 32.7613 188.398 80.4019 198.101C91.0905 200.317 107.658 200.622 117.812 198.865C138.731 195.198 157.513 185.112 172.629 169.526C210.955 129.872 210.039 67.296 170.415 28.3295C163.315 21.3766 151.863 13.4305 143.312 9.45747C125.676 1.35855 104.757 -1.77405 86.5097 0.976517ZM119.568 4.79677C153.542 11.5204 181.867 36.6576 193.014 69.9701C198.969 87.9253 199.122 111.611 193.396 129.337C182.783 161.732 157.283 185.8 124.378 194.434C114.453 197.031 95.2133 197.719 84.4483 195.885C60.0172 191.76 37.8002 177.93 22.5308 157.607C16.0413 148.973 9.47544 135.067 6.65059 123.912C3.59671 112.146 2.83324 96.6354 4.74192 85.2511C11.6895 43.152 43.6026 11.2912 86.1279 4.03271C93.61 2.73384 111.399 3.11586 119.568 4.79677Z" fill="#0E6946"/>
<path d="M78.4616 54.6297C57.881 57.135 38.2877 69.7373 27.2759 87.5019L23.4028 93.7271L21.5043 106.861C18.9222 124.777 19.7576 122.955 14.1378 122.955C10.1887 122.955 9.35337 123.183 9.12554 124.246C8.89771 125.536 13.6062 125.612 100.105 125.612C186.605 125.612 191.313 125.536 191.085 124.246C190.857 123.183 189.87 122.879 186.149 122.727C180.605 122.5 181.516 124.474 178.782 105.798C177.112 94.1067 177.036 93.803 173.391 87.9574C168.302 79.6824 158.278 69.5854 150.228 64.5749C144.456 61.0068 132.457 56.224 127.369 55.4648C126.382 55.313 124.027 54.9334 122.129 54.6297C115.978 53.6428 86.3597 53.7187 78.4616 54.6297ZM97.0677 56.9832C97.0677 57.5905 94.0299 62.601 93.6502 62.601C93.2705 62.601 90.2328 57.5905 90.2328 56.9832C90.2328 56.7554 91.7516 56.5277 93.6502 56.5277C95.5488 56.5277 97.0677 56.7554 97.0677 56.9832ZM109.978 57.4387C109.978 57.9701 109.143 59.4125 108.231 60.6272L106.485 62.8288L104.814 60.0199C103.903 58.4256 103.143 57.0591 103.143 56.8313C103.143 56.6795 104.662 56.5277 106.561 56.5277C108.763 56.5277 109.978 56.8313 109.978 57.4387ZM82.1828 60.3235L80.1324 63.4361L77.5503 60.9309L74.9682 58.4256L77.0946 57.9701C78.2338 57.6664 80.3602 57.4387 81.7272 57.3628L84.1573 57.2868L82.1828 60.3235ZM123.496 57.8942C125.243 58.4256 125.243 58.4256 122.66 60.9309L120.078 63.4361L118.408 60.7031C117.572 59.1848 116.813 57.8183 116.813 57.5905C116.813 57.135 121.445 57.3628 123.496 57.8942ZM88.9418 61.0068C90.7644 64.1194 90.6125 64.499 87.1951 64.499C83.7776 64.4231 83.6257 64.2712 85.2965 61.0827C86.7394 58.2738 87.271 58.2738 88.9418 61.0068ZM102.004 61.0827C102.612 62.2974 103.143 63.588 103.143 63.8916C103.143 64.4231 97.7512 64.2712 97.2196 63.7398C96.7639 63.3602 99.5738 58.8052 100.257 58.8052C100.561 58.8052 101.32 59.7921 102.004 61.0827ZM115.674 61.766C116.281 62.9806 116.585 64.1194 116.357 64.2712C116.053 64.6508 110.661 64.2712 110.206 63.8916C110.13 63.7398 110.737 62.5251 111.573 61.2345C113.168 58.5015 114.003 58.5774 115.674 61.766ZM68.9687 60.2476C68.9687 60.8549 67.3739 65.7896 67.0701 66.2451C66.7664 66.6247 61.3744 63.2084 61.3744 62.601C61.3744 62.2215 62.8173 61.4623 64.64 60.8549C68.5131 59.4125 68.9687 59.4125 68.9687 60.2476ZM136.482 61.1586C138.229 61.69 139.596 62.2974 139.596 62.5251C139.596 62.7529 138.229 63.7398 136.558 64.7267L133.52 66.4728L132.837 64.7267C131.166 60.1717 131.014 59.3366 132.229 59.7921C132.837 60.0199 134.735 60.6272 136.482 61.1586ZM74.8163 61.9937C75.8036 62.9047 76.563 64.0435 76.563 64.5749C76.563 65.4859 71.3989 66.8524 70.7154 66.0932C70.2598 65.6377 71.9305 60.3235 72.614 60.3235C72.8418 60.3235 73.8291 61.0827 74.8163 61.9937ZM129.647 64.0435L130.483 66.6247L127.293 66.0932C125.546 65.7896 123.952 65.41 123.724 65.1822C123.572 65.0304 124.331 63.8157 125.546 62.601C127.977 60.0958 128.356 60.2476 129.647 64.0435ZM63.5008 68.5226C63.7286 69.2058 58.3367 72.0148 57.8051 71.4074C57.5773 71.1797 57.6532 69.6613 57.957 67.9152L58.4886 64.8026L60.8428 66.321C62.2098 67.1561 63.3489 68.143 63.5008 68.5226ZM142.634 69.2058C142.634 70.5723 142.482 71.7111 142.254 71.7111C141.418 71.7111 136.558 69.1299 136.558 68.5985C136.558 68.2948 137.697 67.3838 138.988 66.5487C141.798 64.7267 142.634 65.3341 142.634 69.2058ZM54.9952 68.8263C54.7674 70.4964 54.4636 72.0907 54.3117 72.2425C54.1598 72.3944 52.565 71.8629 50.7424 71.1038L47.4768 69.7373L50.8183 67.6875C52.6409 66.6247 54.4636 65.7137 54.7674 65.6377C55.1471 65.6377 55.223 67.0802 54.9952 68.8263ZM149.317 67.6116C151.139 68.6744 152.354 69.8132 151.975 70.1928C151.291 70.8001 146.279 72.6221 146.051 72.3184C145.595 71.787 145.14 65.6377 145.519 65.6377C145.747 65.6377 147.418 66.5487 149.317 67.6116ZM125.091 68.6744C133.368 70.4964 142.558 74.8237 149.013 79.9861C157.063 86.439 160.936 91.9051 172.631 113.845C174.606 117.565 176.58 121.133 177.036 121.589C177.491 122.272 177.415 122.576 176.732 122.576C164.353 122.727 23.7826 122.5 23.6307 122.272C22.9472 121.665 38.6674 93.9548 42.3886 89.1721C50.1348 79.2269 61.1466 72.1666 73.905 68.9781C80.0564 67.4597 82.6385 67.232 99.5738 67.232C115.598 67.1561 119.319 67.3838 125.091 68.6744ZM50.0589 77.1771C48.7678 78.3159 47.4009 79.3028 47.0212 79.3028C46.4136 79.3028 45.5023 73.4572 46.0339 72.9258C46.1858 72.7739 47.6287 73.1535 49.3754 73.8368L52.4131 75.0515L50.0589 77.1771ZM154.253 76.1143C154.025 77.8604 153.569 79.3028 153.342 79.3028C153.038 79.3028 151.671 78.3159 150.228 77.1771L147.646 74.9755L150.987 73.8368C152.886 73.2295 154.481 72.698 154.557 72.7739C154.633 72.8499 154.481 74.2923 154.253 76.1143ZM43.4518 77.5567C43.9075 80.7453 43.9075 80.8212 41.7051 80.8212C37.0726 80.8212 36.6929 80.1379 39.8066 76.9494C41.4014 75.3551 42.6924 74.0645 42.7683 74.2164C42.8443 74.2923 43.1481 75.8106 43.4518 77.5567ZM161.164 76.9494C163.974 79.8342 163.974 79.8342 162.227 80.3657C161.24 80.5934 159.721 80.8212 158.809 80.8212C157.215 80.8212 157.063 80.4416 157.063 77.4049C157.063 75.507 157.367 73.9886 157.67 73.9886C157.974 73.9886 159.569 75.2792 161.164 76.9494ZM40.2622 83.7819L42.3886 84.2374L40.4141 86.6668C38.1358 89.6276 37.3764 89.7794 36.7688 87.35C36.541 86.3631 36.0853 84.9966 35.8575 84.3134C35.3259 83.0228 36.4651 82.8709 40.2622 83.7819ZM164.657 83.7819C164.657 85.0725 162.986 89.1721 162.379 89.1721C162.075 89.1721 160.936 88.0333 159.797 86.5909L157.822 83.9338L159.873 83.6301C163.67 83.0987 164.657 83.0987 164.657 83.7819ZM33.9589 87.7296C35.3259 91.7532 35.0981 92.2087 31.3769 92.2087H27.9594L30.0858 88.7925C31.225 86.8945 32.3641 85.3762 32.592 85.3762C32.8957 85.3762 33.5033 86.439 33.9589 87.7296ZM170.429 89.0202L172.327 92.2087H168.91C167.011 92.2087 165.416 91.981 165.416 91.7532C165.416 90.159 167.315 85.3762 167.847 85.528C168.226 85.6799 169.366 87.1982 170.429 89.0202ZM34.0349 95.7769C33.9589 96.1564 33.3514 97.5229 32.592 98.9654L31.225 101.547L29.6302 99.1931C27.2759 95.9287 27.5038 95.2454 30.9972 95.2454C32.6679 95.2454 34.0349 95.4732 34.0349 95.7769ZM171.416 98.0544C170.505 99.6486 169.593 101.091 169.517 101.167C169.441 101.319 168.606 100.104 167.695 98.358L166.176 95.2454H169.669H173.163L171.416 98.0544ZM27.2 103.9C25.1495 104.811 24.6939 104.204 25.3014 101.319L25.833 98.8895L27.2759 101.015C28.7189 103.217 28.7189 103.217 27.2 103.9ZM175.289 101.698C175.289 103.52 174.909 104.355 174.226 104.355C172.555 104.355 172.175 103.141 173.087 101.015C174.378 98.2821 175.289 98.5858 175.289 101.698ZM27.2 108.531C26.6684 109.138 25.9849 109.442 25.6052 109.214C24.6179 108.607 25.5293 107.392 26.9722 107.392C27.9594 107.392 27.9594 107.62 27.2 108.531ZM174.606 108.379C174.53 109.29 173.466 109.062 173.163 108.075C172.935 107.62 173.239 107.316 173.77 107.468C174.226 107.696 174.606 108.075 174.606 108.379ZM23.9344 114.377C23.7066 114.984 23.4788 114.756 23.4788 113.921C23.4028 113.086 23.6307 112.63 23.8585 112.934C24.0863 113.162 24.1623 113.845 23.9344 114.377ZM176.58 114.377C176.352 114.984 176.124 114.756 176.124 113.921C176.049 113.086 176.276 112.63 176.504 112.934C176.732 113.162 176.808 113.845 176.58 114.377Z" fill="#0E6946"/>
<path d="M78.082 140.872C78.082 141.327 78.9933 143.377 80.0565 145.351L82.031 148.919L79.7528 152.639C77.6263 155.979 77.3226 157.497 78.6895 157.497C78.9933 157.497 79.9806 156.131 80.9678 154.461C81.8792 152.791 82.9424 151.424 83.2461 151.424C83.5499 151.424 84.5372 152.791 85.5244 154.461C87.1952 157.422 88.714 158.409 88.714 156.662C88.714 156.131 87.7268 154.157 86.5117 152.183L84.3093 148.615L86.5117 145.123C87.7268 143.149 88.714 141.175 88.714 140.72C88.714 139.126 86.8155 140.568 85.2966 143.301C84.4612 144.819 83.5499 146.11 83.2461 146.11C82.9424 146.11 81.9551 144.743 81.0438 143.073C79.373 140.112 78.082 139.201 78.082 140.872Z" fill="#0E6946"/>
<path d="M94.7893 140.568C94.7893 140.948 95.7766 142.921 96.9157 145.047L99.0421 148.843L96.9157 152.259C95.7766 154.081 94.7893 156.055 94.7893 156.511C94.7893 158.409 96.3082 157.422 97.9789 154.461C98.9662 152.791 99.9534 151.424 100.257 151.424C100.561 151.424 101.548 152.791 102.46 154.461C103.447 156.131 104.434 157.498 104.738 157.498C106.181 157.498 105.877 155.979 103.751 152.563L101.396 148.843L103.447 145.275C104.51 143.301 105.421 141.327 105.421 140.872C105.421 139.05 103.827 140.188 102.384 143.073C101.548 144.743 100.561 146.11 100.257 146.11C99.9534 146.11 98.9662 144.743 97.9789 143.073C96.4601 140.34 94.7893 139.05 94.7893 140.568Z" fill="#0E6946"/>
<path d="M112.028 140.568C111.725 140.796 111.497 144.743 111.497 149.299V157.498H117.193C121.749 157.498 122.888 157.27 122.888 156.359C122.888 155.448 121.901 155.22 118.332 155.22H113.775V147.628C113.775 140.644 113.395 139.126 112.028 140.568Z" fill="#0E6946"/>
</svg>
