<svg width="201" height="200" viewBox="0 0 201 200" fill="none" xmlns="http://www.w3.org/2000/svg">
<path d="M87.4059 0.468994C43.0704 6.68921 8.44716 40.9004 1.62631 85.2565C0.217658 94.2906 0.588357 111.396 2.36771 119.69C10.7455 158.122 38.9927 187.742 76.2108 196.998C122.177 208.328 169.256 186.853 190.312 144.941C197.429 130.797 200.765 116.58 200.765 99.9925C200.765 75.4078 193.351 54.5997 177.782 35.6429C163.844 18.6853 142.862 6.24492 120.324 1.57974C113.429 0.0987396 94.4491 -0.493652 87.4059 0.468994ZM114.763 3.80125C135.967 6.98541 153.983 16.0195 169.182 31.1258C183.936 45.6396 193.351 63.7079 196.762 83.7014C198.467 93.6982 197.874 112.877 195.65 121.911C186.679 157.9 160.137 184.928 124.846 194.036C84.9593 204.403 42.8479 188.038 19.5681 153.161C8.1506 135.981 2.88669 117.172 3.77636 96.0678C4.2212 85.1084 5.40743 78.5179 8.74372 68.5211C18.8267 38.3827 44.8497 14.0942 75.766 5.94872C87.9249 2.69051 102.456 1.87595 114.763 3.80125Z" fill="#0E6946"/>
<path d="M124.108 45.205C90.9235 53.7738 66.5886 60.8652 61.4266 63.5984C53.6099 67.8089 44.4659 77.1903 40.5576 85.1681C36.2068 94.1801 35.0269 99.868 35.3956 110.653C35.6906 117.227 36.2068 120.773 37.3866 124.319C44.4659 145.076 63.9339 159.037 85.7616 159.037C98.7402 159.037 111.498 154.014 120.199 145.519C126.541 139.314 164.223 96.6916 166.288 93.3675C167.247 91.8902 168.648 88.7138 169.459 86.2761C173.589 73.5707 171.229 61.3823 163.043 52.5919C158.914 48.0859 155.817 46.0915 150.286 44.0231C142.396 41.0684 139.593 41.2161 124.108 45.205ZM148.442 46.5347C161.274 50.6713 169.754 63.5984 168.427 76.9687C167.837 82.5827 165.919 88.4183 163.412 92.0379C161.642 94.6972 136.496 123.358 134.579 124.91C133.841 125.574 133.915 124.466 135.021 120.404C137.086 112.5 136.496 99.4248 133.694 91.964C127.205 74.2355 113.931 62.4903 96.1592 58.6492L90.2598 57.3934L107.221 52.8135C141.511 43.506 139.815 43.8015 148.442 46.5347ZM101.542 63.229C112.825 67.218 122.928 76.1561 128.163 86.9409C131.998 94.6972 133.325 100.237 133.325 108.141C133.325 121.29 128.606 132.666 119.314 142.047C110.244 151.133 101.026 155.27 87.9738 155.861C81.1158 156.23 78.9773 156.008 73.9628 154.679C56.5596 149.877 43.2123 136.433 39.3039 119.739C37.9028 113.681 37.9028 102.158 39.3039 96.6178C43.2123 81.253 56.8546 66.9225 71.7505 62.5642C81.1895 59.8311 92.3984 60.0527 101.542 63.229Z" fill="#0E6946"/>
<path d="M79.8622 65.2235C70.2758 66.4793 60.3943 71.724 53.7575 78.9632C34.5108 100.09 40.2627 133.552 65.5563 146.849C72.0456 150.247 77.7975 151.65 85.3929 151.65C97.7816 151.65 107.811 147.587 116.291 139.092C124.698 130.745 128.901 120.551 128.901 108.289C128.901 100.385 127.573 94.7711 123.96 87.9752C115.627 72.0934 97.7816 62.9336 79.8622 65.2235ZM97.1917 69.6557C110.318 73.4969 121.379 84.9465 124.845 98.0952C126.246 103.709 126.246 113.164 124.845 118.778C122.19 128.751 114.005 139.166 104.861 144.042C89.2275 152.389 69.907 149.508 57.4446 136.95C46.3833 125.87 42.6224 110.579 47.2682 96.1746C52.2089 80.5883 64.5976 70.616 82.4432 67.8828C85.5404 67.4396 92.1772 68.1783 97.1917 69.6557Z" fill="#0E6946"/>
<path d="M79.4934 72.6843C73.0041 73.7923 65.2612 77.8551 60.2467 82.8782C41.0737 102.084 49.2591 134.956 75.2164 142.86C81.9269 144.928 92.4721 144.559 98.8139 142.121C107.663 138.723 115.922 130.376 119.388 121.512C121.821 115.233 122.19 104.596 120.125 97.9474C118.282 91.8163 114.079 85.0204 109.654 81.1792C105.303 77.338 97.1178 73.5707 91.2922 72.6104C85.8353 71.7978 85.0978 71.7978 79.4934 72.6843ZM92.1034 75.8606C102.501 78.0767 111.055 84.8726 115.627 94.4017C118.946 101.345 119.609 110.505 117.176 118.187C108.327 146.775 69.022 149.582 55.8959 122.546C46.6781 103.488 58.0344 80.5144 79.051 75.9345C84.8766 74.6787 86.2777 74.6787 92.1034 75.8606Z" fill="#0E6946"/>
<path d="M80.2309 79.9973C68.2847 82.5088 59.4356 91.8163 57.2971 104.226C55.2323 116.045 61.9428 128.825 73.2254 134.365C77.2812 136.359 78.3136 136.507 85.7616 136.507C93.1358 136.507 94.2419 136.285 98.0028 134.439C103.312 131.853 108.917 126.239 111.571 120.847C114.079 115.75 114.89 107.255 113.489 101.05C112.309 95.8791 107.81 89.0093 103.46 85.6852C97.1179 80.8098 87.6051 78.5199 80.2309 79.9973ZM95.3481 84.5033C100.436 86.4239 106.483 92.1118 108.99 97.3564C110.318 100.09 110.834 102.675 111.055 107.55C111.35 113.829 111.276 114.272 108.695 119.517C105.746 125.427 102.206 129.046 96.5279 131.853C93.7257 133.257 91.9559 133.552 85.7616 133.552C79.346 133.552 77.8711 133.331 74.7002 131.705C53.02 120.847 56.3384 89.157 79.7884 83.2475C84.4342 82.0656 89.9649 82.5088 95.3481 84.5033Z" fill="#0E6946"/>
</svg>
