<svg width="201" height="200" viewBox="0 0 201 200" fill="none" xmlns="http://www.w3.org/2000/svg">
<path d="M85.6154 0.879288C34.7063 9.29321 -1.42769 53.3516 0.868958 104.141C2.93595 149.882 34.5532 187.592 79.491 197.918C89.2901 200.213 106.285 200.672 116.314 198.989C138.285 195.394 156.123 186.292 171.816 170.688C185.52 157.149 194.094 141.774 198.993 122.116C200.525 115.844 200.754 112.861 200.754 100.699C200.831 89.9139 200.525 85.0185 199.453 80.2761C190.879 40.6542 161.788 11.0525 122.362 1.95015C113.635 -0.115082 94.6489 -0.650513 85.6154 0.879288ZM116.697 3.9389C126.802 5.69818 135.07 8.45183 144.486 13.1177C168.142 24.9737 185.979 45.7791 193.864 70.7914C199.682 89.2255 199.682 110.643 193.864 129.077C184.525 158.679 161.405 182.314 132.314 192.028C76.4288 210.692 18.0173 176.96 5.46226 118.827C3.54839 110.184 3.54839 89.7609 5.38571 81.1175C7.45269 71.7092 9.51968 65.896 14.0364 56.7171C27.9695 28.5687 55.9886 8.14586 86.8403 3.63293C94.3427 2.56207 109.424 2.71506 116.697 3.9389Z" fill="#0E6946"/>
<path d="M57.2378 75.1455C48.9998 76.7469 40.6093 82.6952 35.6512 90.3975C32.6001 95.2019 29.6253 104.582 29.6253 109.386V113.123L22.6077 113.352C16.8869 113.504 15.5139 113.809 15.5139 114.725C15.5139 115.716 25.2012 115.868 97.8938 115.868C170.586 115.868 180.274 115.716 180.274 114.725C180.274 113.886 179.129 113.504 175.544 113.352C171.425 113.123 170.815 112.971 170.434 111.369C169.671 108.242 166.696 105.345 161.967 103.209C154.644 99.93 77.5276 76.9757 67.3827 75.1455C62.3484 74.2303 61.8907 74.2303 57.2378 75.1455ZM73.1798 80.1024C83.1722 84.6017 92.173 98.7099 92.173 109.92V113.199L62.2721 113.047L32.3713 112.818L32.6001 109.081C32.9052 103.362 35.4224 96.3458 38.8549 91.1601C47.0166 78.8822 60.6703 74.5354 73.1798 80.1024ZM127.947 95.3544C156.475 103.896 162.196 105.955 165.628 109.158C169.9 113.276 170.663 113.199 131.608 113.199H95.5292L94.6901 106.717C93.6222 99.0149 90.8 92.2277 86.2996 86.737C84.4689 84.5255 83.0196 82.5427 83.0196 82.3902C83.0196 82.0851 86.4521 83.0765 127.947 95.3544Z" fill="#0E6946"/>
<path d="M133.363 124.409C133.363 125.172 134.965 127.384 136.948 129.366L140.533 133.027H116.734C96.9022 133.027 92.9358 133.179 92.9358 134.095C92.9358 134.705 93.4697 135.391 94.1562 135.62C94.8427 135.849 105.369 136.077 117.573 136.077H139.77L136.567 139.356C133.439 142.559 132.371 145.229 134.355 145.229C135.499 145.229 145.567 135.238 145.567 134.095C145.567 133.027 135.422 123.113 134.278 123.113C133.821 123.113 133.363 123.723 133.363 124.409Z" fill="#0E6946"/>
</svg>
