<svg width="201" height="200" viewBox="0 0 201 200" fill="none" xmlns="http://www.w3.org/2000/svg">
<path d="M85.213 0.859131C37.232 9.35887 3.25502 47.646 0.88275 95.8111C-1.48952 144.589 32.3344 187.93 81.0042 198.497C90.0341 200.488 111.691 200.488 120.567 198.574C159.748 190.151 188.904 161.971 198.623 123.225C200.536 115.72 200.689 113.653 200.765 100.406C200.765 88.8429 200.459 84.6313 199.311 79.7305C189.975 39.7588 161.432 10.8904 122.328 1.93117C113.527 -0.0597534 93.7073 -0.672348 85.213 0.859131ZM122.557 4.99414C135.107 7.90396 148.193 13.9533 159.059 21.9936C165.334 26.5881 176.048 37.6147 180.716 44.2001C197.781 68.3976 202.755 100.712 193.802 129.274C182.859 164.115 152.708 190.304 116.818 196.123C74.6526 202.938 32.8701 181.498 14.045 143.287C7.15778 129.274 4.63246 119.549 3.94374 103.775C2.48977 71.0011 17.9478 39.6822 45.1906 20.3855C56.3632 12.4218 72.7395 5.75987 86.82 3.53923C94.2429 2.39061 114.828 3.23293 122.557 4.99414Z" fill="#0E6946"/>
<path d="M105.903 49.3193C97.2082 59.1432 89.8866 72.0132 87.9799 80.9994C87.3697 83.8171 87.1409 88.5387 87.3697 92.651C87.6748 99.5049 87.5985 99.6572 85.6156 101.256C84.4716 102.17 82.4886 102.856 81.0395 102.856C77.6838 102.856 76.616 100.876 76.5397 94.4787C76.4635 90.5187 76.2347 89.4525 75.2432 89.3002C74.328 89.1479 73.1077 90.8233 70.896 95.3926C66.7775 103.922 65.2522 110.166 65.1759 118.924L65.0996 126.311L56.3289 131.947C51.524 135.069 44.0498 139.79 39.7788 142.456C35.5078 145.197 31.7707 147.863 31.6182 148.396C30.3217 151.442 34.8977 149.31 49.6173 139.867L65.786 129.434L67.8452 135.221C70.9722 143.751 78.6752 155.402 81.1921 155.402C83.3275 155.402 82.9462 153.727 80.048 150.224C75.5483 144.893 71.7349 138.191 70.057 132.632C69.2181 129.89 68.6842 127.606 68.7605 127.606C68.8367 127.53 70.8197 126.235 73.1077 124.788C103.767 104.988 120.699 94.5549 121.309 94.9356C122.605 95.7733 127.715 107.425 128.783 111.842C130.232 118.163 129.927 129.053 128.097 134.84C125.961 141.542 122.148 147.634 118.334 150.452C114.979 152.889 114.14 154.641 116.428 154.641C119.936 154.641 125.351 148.777 128.783 141.314C131.529 135.297 132.596 130.043 132.596 122.199C132.596 113.593 130.918 106.663 126.953 98.7434L123.597 92.1179L125.351 91.2041C131.529 87.9295 169.967 62.7224 169.967 61.9609C169.967 61.504 169.662 60.8947 169.281 60.5901C168.518 60.2093 165.544 62.037 137.554 80.0094C119.936 91.2803 121.614 91.2041 117.343 81.0756C113.377 71.4802 111.852 64.5501 111.623 54.8785C111.394 44.4454 110.784 43.8362 105.903 49.3193ZM108.496 53.4316C107.733 54.7262 109.716 67.7486 111.699 74.1456C112.843 77.5725 114.902 82.8271 116.275 85.8733C117.724 88.8433 118.868 91.4326 118.868 91.661C118.868 91.8895 115.36 94.2503 111.089 96.9918C106.742 99.6572 95.3778 106.892 85.8444 113.06C72.1162 121.818 68.3791 123.95 67.9978 122.96C66.7012 119.61 70.8197 99.3526 73.0314 97.9818C73.4128 97.7534 73.8704 98.6672 74.1754 99.9618C75.2432 105.521 80.3531 107.425 86.0732 104.531C90.0391 102.551 90.7255 100.495 90.1916 92.9556C89.6577 84.9594 91.0306 78.4863 94.9202 70.7186C99.3437 61.9609 106.97 51.4516 108.267 52.2893C108.648 52.5178 108.801 53.0508 108.496 53.4316Z" fill="#0E6946"/>
<path d="M103.767 114.66C102.852 116.563 99.4199 120.904 96.0641 124.407C92.7846 127.834 89.7339 131.413 89.2 132.327C87.9035 134.84 88.2086 140.933 89.8102 144.436C91.4881 148.091 92.1745 148.7 93.6998 147.787C94.615 147.254 94.4625 146.568 93.0134 143.979C89.7339 138.115 90.9542 133.013 96.8268 127.606C98.6572 125.93 101.403 123.113 103.004 121.285C104.53 119.457 105.903 118.315 106.131 118.62C106.36 119 106.818 122.199 107.047 125.778C107.733 134.155 106.513 140.476 103.691 143.217C101.555 145.121 101.327 147.025 103.233 147.025C103.767 147.025 105.216 145.883 106.513 144.436C109.792 140.704 110.936 133.317 109.869 123.493C108.877 115.345 107.733 111.233 106.36 111.233C105.826 111.233 104.682 112.756 103.767 114.66Z" fill="#0E6946"/>
</svg>
