<svg width="201" height="200" viewBox="0 0 201 200" fill="none" xmlns="http://www.w3.org/2000/svg">
<path fill-rule="evenodd" clip-rule="evenodd" d="M24.8546 34.905C40.5169 16.1025 64.5834 3.41464 90.7892 0.204468C95.9845 -0.406998 113.404 0.433762 119.669 1.65669C139.228 5.47833 157.488 15.1853 171.775 29.5547C186.597 44.3062 196.453 63.7966 199.738 84.5864C201.572 95.9749 200.884 112.714 198.21 123.338C193.244 143.287 184.228 158.726 169.636 172.637C150.459 190.828 127.462 200 101.027 200C80.0166 200 62.9026 194.879 45.5594 183.49C36.3912 177.376 27.2994 168.892 20.8053 160.331C14.7696 152.382 7.51141 137.937 4.83736 128.535C-2.4208 103.389 0.100455 77.1724 11.7899 54.3954C15.992 46.2171 18.5896 42.3954 24.8546 34.905ZM196.605 84.2042C190.035 43.1597 156.113 9.75858 115.085 3.94968C88.2679 0.128021 62.6734 6.85413 41.3573 23.3636C23.403 37.2744 11.1787 56.4591 5.83058 79.2361C3.61493 88.7902 3.30932 106.981 5.14296 117.07C8.96304 137.784 18.5896 155.516 33.9464 170.191C48.4627 184.178 65.1182 192.586 84.6771 195.796C96.2137 197.783 114.397 197.096 124.712 194.344C174.067 181.121 204.704 134.268 196.605 84.2042ZM92.6228 45.3764C93.998 42.1662 96.8248 39.6439 100.492 38.3446C102.097 37.7331 104.083 37.2745 104.923 37.2745C107.215 37.2745 112.105 39.1853 113.862 40.7904C116.078 42.7012 118.294 47.7458 118.294 50.8796C118.294 54.3955 115.62 59.7458 112.946 61.6566C110.195 63.5674 110.501 65.8604 113.71 68.3827C116.46 70.5228 116.536 70.905 114.092 74.4973L114.092 74.4974L114.091 74.4975C112.997 76.0749 112.529 76.7479 112.618 77.3376C112.684 77.7764 113.058 78.1691 113.71 78.8539L113.71 78.854C115.772 80.9941 115.62 82.1406 112.946 85.6565C111.418 87.6438 110.654 89.5546 110.654 91.2361C110.654 93.0705 110.042 94.3699 108.591 95.6692C105.917 98.0386 104.694 98.0386 102.097 95.6692L99.9573 93.8348V78.7011V63.5674L97.2833 61.8859C92.3172 58.5993 90.1779 51.1089 92.6228 45.3764ZM115.238 50.956C115.238 47.8223 113.098 43.9242 110.348 42.1662C103.701 37.7331 94.6092 42.7012 94.6092 50.7267C94.6092 54.3955 96.9012 58.2171 100.339 60.2044L103.013 61.8095V77.3253C103.013 92.3062 103.09 92.9176 104.541 93.3762C106.91 94.1406 108.361 92.5355 107.827 89.9368C107.521 88.1788 107.979 87.0323 109.737 84.8158L112.029 81.9113L110.195 79.7712L108.361 77.6311L110.424 74.4973L112.487 71.44L110.424 69.6056C108.743 68.1534 108.361 67.1598 108.361 64.4846C108.361 61.6566 108.743 60.8158 110.272 59.8222C113.098 57.9878 115.238 54.0897 115.238 50.956ZM103.014 45.2235C101.638 46.8286 102.402 49.0452 104.465 49.2745C107.292 49.7331 108.438 47.2872 106.375 45.3C104.924 43.7713 104.236 43.7713 103.014 45.2235ZM39.9823 109.809C24.0143 109.809 23.5559 109.733 23.5559 108.281C23.5559 106.752 23.9379 106.752 41.3575 106.905L59.0827 107.134L59.3119 110.421L59.5411 113.784L62.3679 113.402C63.896 113.172 68.098 111.949 71.6889 110.574C80.0931 107.363 89.7197 106.676 96.5958 108.663C100.416 109.733 102.861 109.886 112.564 109.427C123.566 108.892 124.1 108.969 126.163 110.574C127.539 111.644 128.226 112.943 128.226 114.395V116.535L136.859 113.937C146.41 111.032 148.702 110.803 151.834 112.484C156.189 114.701 155.272 120.281 149.924 125.019C145.569 128.841 134.567 133.274 120.051 137.019C114.547 138.429 111.656 139.234 108.715 139.513C104.798 139.884 100.793 139.323 90.4073 138.013C88.5937 137.807 86.6022 137.556 84.9247 137.345C83.4928 137.165 82.2896 137.013 81.6211 136.943C80.9967 136.877 80.0755 136.769 79.0519 136.649C77.6959 136.49 76.1604 136.309 74.8978 136.179C69.1677 135.414 66.4172 135.491 62.7499 136.484C59.7703 137.325 59.5411 137.554 59.3119 140.23L59.0827 143.058L41.3575 143.287C23.9379 143.44 23.5559 143.44 23.5559 141.911C23.5559 140.459 24.0143 140.382 39.9823 140.382H56.4086V125.096V109.809H39.9823ZM111.036 112.561C103.09 112.943 98.9643 112.79 97.8947 112.255C91.7825 108.969 77.3426 110.421 67.716 115.236C66.1116 116.077 63.6668 116.688 62.1387 116.688H59.4647V125.555C59.4647 133.733 59.5411 134.421 60.8399 133.886C64.4308 132.51 73.0642 132.816 89.6433 134.879L107.216 137.172L114.856 135.261C136.401 130.064 148.32 124.79 150.994 119.287C152.216 116.688 152.216 116.535 150.765 115.465C148.549 113.784 146.333 114.166 133.192 118.141C121.35 121.656 107.75 124.255 106.07 123.185C104.007 121.886 106.452 120.816 114.321 119.669C119.058 118.981 123.413 117.988 124.024 117.453C125.552 116.153 125.476 113.172 123.871 112.561C123.107 112.255 117.377 112.255 111.036 112.561Z" fill="#0E6946"/>
</svg>
