<svg width="201" height="200" viewBox="0 0 201 200" fill="none" xmlns="http://www.w3.org/2000/svg">
<path d="M90.7162 0.645706C79.1041 2.17087 64.8357 6.28877 56.2594 10.6355C35.1603 21.3115 17.4007 40.6047 8.74853 62.1856C-5.8235 98.6367 1.38662 139.282 27.4948 167.879C40.549 182.215 57.3979 192.205 77.2067 197.314C87.9839 200.136 105.136 200.822 116.521 198.839C136.861 195.484 154.317 186.714 168.965 172.683C188.622 153.924 198.792 131.199 199.779 104.28C200.841 75.3782 190.975 49.8319 171.166 29.9286C152.571 11.093 130.182 1.40829 103.998 0.645706C98.154 0.493195 92.1582 0.493195 90.7162 0.645706ZM121.53 5.44994C141.111 10.3304 155.076 18.185 168.889 32.1401C187.635 51.052 196.971 73.548 197.046 99.7044C197.122 134.097 180.577 164.066 151.433 182.52C135.647 192.586 119.86 196.933 99.8996 197.009C81.0774 197.009 63.7731 191.747 47.7591 181.224C39.4105 175.809 26.3564 162.922 20.8919 154.686C8.97622 136.766 3.43581 117.015 4.42246 95.9677C5.6368 70.2689 14.972 49.3743 33.4147 30.9962C48.5939 15.8972 66.2777 7.28012 89.5778 3.69601C95.1941 2.85718 115.458 3.92479 121.53 5.44994Z" fill="#0E6946"/>
<path d="M99.5959 14.3722C99.2924 14.6772 99.0647 24.2094 99.0647 35.5718V56.1613L93.5243 50.6708C87.908 45.104 86.1624 44.1126 86.1624 46.5529C86.1624 48.1543 98.9888 61.1943 100.583 61.1943C102.252 61.1943 116.065 47.0104 115.458 46.0191C114.396 44.4177 113.03 45.2565 107.793 50.5183L102.48 55.9326L102.101 35.1905C101.721 15.516 101.417 12.6182 99.5959 14.3722Z" fill="#0E6946"/>
<path d="M70.9829 79.1911C59.2191 81.0213 53.0715 83.1565 49.7321 86.4356C47.7588 88.4183 47.4552 89.3334 47.4552 92.8412C47.4552 96.8066 47.3793 97.0354 44.7988 98.2555C43.3568 98.9418 41.3076 100.543 40.2451 101.763C38.3477 103.975 38.3477 104.127 38.3477 119.531V135.088L40.7004 137.757C41.9148 139.206 43.6604 140.655 44.4952 140.884C45.7096 141.265 45.9373 142.104 45.9373 146.45C45.9373 153.085 47.4552 155.677 52.9197 158.347C59.1432 161.397 67.0363 162.846 78.1931 162.846C92.6133 162.846 102.556 160.558 108.172 155.83L110.828 153.619L111.056 144.391L111.36 135.164L108.779 132.648C107.413 131.199 105.667 129.75 104.984 129.369C103.998 128.835 103.694 127.233 103.542 121.133C103.315 113.736 103.315 113.583 105.136 112.897C106.199 112.516 108.172 111.143 109.538 109.77L111.967 107.406V98.103C111.967 89.0283 111.891 88.7996 109.918 86.7406C105.364 82.1651 95.8009 79.5724 81.9879 79.1911C76.9787 79.0386 72.0455 79.0386 70.9829 79.1911ZM96.484 83.6903C103.315 85.2154 108.931 88.647 108.931 91.1635C108.931 101.763 64.3041 104.814 52.7679 94.9764C46.6962 89.8672 52.692 85.5205 70.224 82.2414C74.0947 81.5551 91.3231 82.4702 96.484 83.6903ZM54.3617 99.4756C57.9288 101.153 58.0047 101.23 58.2324 105.042C58.3842 107.94 58.7637 108.932 59.8262 109.084C60.8888 109.313 61.1165 108.779 61.1165 105.805C61.1165 102.373 61.1924 102.297 63.2415 102.526C64.9872 102.755 65.2907 103.136 65.5184 105.424C65.822 109.847 66.4292 111.524 67.5676 111.524C68.4025 111.524 68.7061 110.609 68.7061 107.788V104.127L81.0771 103.67C94.8143 103.212 100.431 102.068 108.4 97.9505C108.703 97.798 108.931 99.7044 108.931 102.221C108.931 106.491 108.779 106.949 106.654 108.474C96.8635 115.49 69.9963 116.481 56.1832 110.38C54.134 109.465 51.933 108.169 51.3259 107.483C50.491 106.415 49.5803 97.798 50.4151 97.798C50.5669 97.798 52.3125 98.5605 54.3617 99.4756ZM47.4552 104.204C47.4552 107.864 49.6562 110.838 53.9063 112.821L56.1832 113.888L53.1474 113.431C49.9597 112.897 44.8747 110.609 42.7496 108.627C40.8522 106.949 41.0799 104.89 43.3568 102.755C46.3926 99.9332 47.4552 100.314 47.4552 104.204ZM43.6604 117.625C43.6604 122.277 43.964 123.115 45.6337 122.429C46.3167 122.2 46.6962 120.828 46.6962 118.311V114.651L48.9731 115.413C51.0982 116.176 51.25 116.481 51.25 120.37C51.25 123.954 51.4018 124.488 52.7679 124.488C54.0581 124.488 54.2858 123.954 54.2858 120.599C54.2858 117.167 54.4376 116.786 55.6519 117.244C56.335 117.549 61.42 118.006 66.8087 118.159C75.7644 118.54 85.6309 117.701 97.7742 115.642C100.506 115.185 100.582 115.185 100.582 117.32C100.582 123.649 91.7784 127.691 75.5367 128.759C63.0898 129.597 47.8347 126.623 43.3568 122.505C41.6112 120.828 41.3835 119.989 41.3835 115.947C41.3835 111.906 41.5353 111.448 42.5219 112.287C43.2809 112.897 43.6604 114.651 43.6604 117.625ZM46.1649 128.148C49.7321 129.902 49.7321 129.902 49.7321 133.639C49.7321 136.537 50.0356 137.452 50.8705 137.452C52.0089 137.452 53.2233 134.249 52.5402 133.105C51.6295 131.733 53.2992 130.512 55.2725 131.046C57.1699 131.504 57.3217 131.809 57.3217 135.698C57.3217 139.282 57.5493 139.816 58.6878 139.587C59.6744 139.358 59.978 138.52 59.978 135.774V132.266H70.224C81.6843 132.266 89.198 130.97 95.8009 127.92C98.0778 126.852 100.127 126.013 100.279 126.013C100.431 126.013 100.582 127.843 100.582 130.131C100.582 133.792 100.355 134.478 98.2296 136.232C94.8902 139.053 91.399 140.35 83.5058 141.799C71.666 143.858 53.7545 142.256 46.4685 138.52C42.3701 136.308 41.3835 134.707 41.3835 130.131C41.3835 127.767 41.6112 126.013 41.9907 126.166C42.2942 126.318 44.1158 127.233 46.1649 128.148ZM107.792 136.079C109.69 141.646 95.2697 146.679 78.3448 146.527L69.8445 146.374L76.5233 145.764C92.2338 144.239 102.024 140.045 103.239 134.325C103.694 132.19 103.77 132.114 105.592 133.487C106.578 134.173 107.565 135.393 107.792 136.079ZM52.1607 149.272C52.3125 152.703 52.692 153.847 53.5269 153.847C54.3617 153.847 54.7412 152.78 54.893 149.882C55.0448 146.755 55.3484 145.993 56.2591 146.374C57.0181 146.603 57.3217 147.975 57.3217 150.95C57.3217 154.457 57.5493 155.067 58.6878 154.839C59.5985 154.686 60.0539 153.695 60.2057 151.331L60.4334 148.052L65.1389 148.662C67.7194 148.967 74.6259 149.272 80.4699 149.196C91.8543 149.119 98.0019 148.052 104.605 144.773L108.172 143.019V147.365C108.172 152.017 107.109 153.619 102.48 155.983C91.9302 161.244 65.1389 161.244 54.8171 156.059C49.9597 153.619 48.9731 152.093 48.9731 147.213C48.9731 143.019 49.049 142.79 50.491 143.705C51.6295 144.468 52.0089 145.688 52.1607 149.272Z" fill="#0E6946"/>
<path d="M132.459 119.836C127.981 120.675 123.427 122.658 121.302 124.641C119.708 126.09 119.557 127.005 119.557 133.334C119.557 140.273 119.633 140.426 121.909 142.332C125.932 145.764 131.624 146.984 143.084 146.984C154.924 146.984 160.92 145.611 164.411 142.027C166.536 139.968 166.612 139.511 166.612 133.029C166.612 126.318 166.536 126.09 164.335 124.183C160.616 121.133 155.152 119.76 144.982 119.455C139.973 119.379 134.356 119.531 132.459 119.836ZM154.848 123.268C164.335 125.785 166.005 128.759 159.706 131.961C151.812 135.927 134.356 135.851 126.387 131.885C121.682 129.597 121.454 127.386 125.552 125.251C127.222 124.412 129.954 123.421 131.472 123.039C135.95 121.972 150.598 122.124 154.848 123.268ZM127.146 138.367C127.146 140.731 127.45 141.265 128.664 141.265C129.878 141.265 130.182 140.731 130.182 138.977C130.182 137.452 130.562 136.689 131.321 136.689C132.307 136.689 132.914 138.672 132.535 140.807C132.459 141.112 132.838 141.951 133.37 142.637C134.28 143.629 133.977 143.705 131.321 143.248C129.727 142.942 127.07 142.027 125.477 141.189C122.896 139.892 122.592 139.435 122.592 136.766V133.792L124.869 134.63C126.843 135.393 127.146 135.851 127.146 138.367ZM163.728 136.613C163.5 139.053 162.969 139.816 160.692 141.112C156.67 143.324 150.902 144.315 142.174 144.315C135.571 144.315 134.66 144.163 135.039 143.095C135.267 142.409 135.495 140.884 135.495 139.587V137.376L139.517 137.833C144.375 138.443 155 137.071 159.706 135.164C161.603 134.402 163.349 133.792 163.576 133.715C163.804 133.639 163.88 134.935 163.728 136.613Z" fill="#0E6946"/>
</svg>
