<svg width="19" height="15" viewBox="0 0 19 15" fill="none" xmlns="http://www.w3.org/2000/svg">
<path d="M17.2188 0.0454102H1.78125C0.79748 0.0454102 0 0.842891 0 1.82666V12.5142C0 13.4979 0.79748 14.2954 1.78125 14.2954H17.2188C18.2025 14.2954 19 13.4979 19 12.5142V1.82666C19 0.842891 18.2025 0.0454102 17.2188 0.0454102ZM17.2188 1.82666V3.34091C16.3867 4.01849 15.0602 5.0721 12.2243 7.29269C11.5994 7.78427 10.3614 8.96528 9.5 8.95151C8.63877 8.96543 7.40039 7.78409 6.77569 7.29269C3.94027 5.07243 2.61343 4.0186 1.78125 3.34091V1.82666H17.2188ZM1.78125 12.5142V5.62659C2.63157 6.30387 3.83744 7.25428 5.67543 8.69353C6.48653 9.33199 7.90697 10.7414 9.5 10.7329C11.0852 10.7414 12.4876 9.35244 13.3242 8.69382C15.1622 7.25461 16.3684 6.30394 17.2188 5.62662V12.5142H1.78125Z" fill="#0E6946"/>
</svg>
