<svg width="13" height="20" viewBox="0 0 13 20" fill="none" xmlns="http://www.w3.org/2000/svg">
<path d="M10.6562 0.870117H2.34375C1.36035 0.870117 0.5625 1.66797 0.5625 2.65137V18.0889C0.5625 19.0723 1.36035 19.8701 2.34375 19.8701H10.6562C11.6396 19.8701 12.4375 19.0723 12.4375 18.0889V2.65137C12.4375 1.66797 11.6396 0.870117 10.6562 0.870117ZM6.5 18.6826C5.84316 18.6826 5.3125 18.152 5.3125 17.4951C5.3125 16.8383 5.84316 16.3076 6.5 16.3076C7.15684 16.3076 7.6875 16.8383 7.6875 17.4951C7.6875 18.152 7.15684 18.6826 6.5 18.6826ZM10.6562 14.6748C10.6562 14.9197 10.4559 15.1201 10.2109 15.1201H2.78906C2.54414 15.1201 2.34375 14.9197 2.34375 14.6748V3.09668C2.34375 2.85176 2.54414 2.65137 2.78906 2.65137H10.2109C10.4559 2.65137 10.6562 2.85176 10.6562 3.09668V14.6748Z" fill="#0E6946"/>
</svg>
