<svg width="19" height="20" viewBox="0 0 19 20" fill="none" xmlns="http://www.w3.org/2000/svg">
<path d="M16.0312 12.3452H14.8438C14.6863 12.3452 14.5353 12.4078 14.4239 12.5191C14.3126 12.6305 14.25 12.7815 14.25 12.939V17.0952H2.375V5.22021H7.71875C7.87622 5.22021 8.02724 5.15766 8.13859 5.04631C8.24994 4.93496 8.3125 4.78394 8.3125 4.62646V3.43896C8.3125 3.28149 8.24994 3.13047 8.13859 3.01912C8.02724 2.90777 7.87622 2.84521 7.71875 2.84521H1.78125C1.30883 2.84521 0.855765 3.03288 0.521716 3.36693C0.187667 3.70098 0 4.15405 0 4.62646L0 17.689C0 18.1614 0.187667 18.6144 0.521716 18.9485C0.855765 19.2825 1.30883 19.4702 1.78125 19.4702H14.8438C15.3162 19.4702 15.7692 19.2825 16.1033 18.9485C16.4373 18.6144 16.625 18.1614 16.625 17.689V12.939C16.625 12.7815 16.5624 12.6305 16.4511 12.5191C16.3397 12.4078 16.1887 12.3452 16.0312 12.3452ZM18.1094 0.470215H13.3594C12.5663 0.470215 12.17 1.43172 12.7285 1.9917L14.0544 3.31762L5.00977 12.3589C4.92674 12.4417 4.86086 12.54 4.8159 12.6483C4.77095 12.7565 4.74781 12.8726 4.74781 12.9898C4.74781 13.107 4.77095 13.2231 4.8159 13.3313C4.86086 13.4396 4.92674 13.5379 5.00977 13.6207L5.85104 14.4604C5.93378 14.5435 6.0321 14.6094 6.14035 14.6543C6.24861 14.6993 6.36468 14.7224 6.48189 14.7224C6.59911 14.7224 6.71518 14.6993 6.82344 14.6543C6.93169 14.6094 7.03001 14.5435 7.11275 14.4604L16.153 5.41764L17.4785 6.7417C18.0352 7.29834 19 6.90869 19 6.11084V1.36084C19 1.12463 18.9062 0.898097 18.7391 0.731073C18.5721 0.564048 18.3456 0.470215 18.1094 0.470215Z" fill="#0E6946"/>
</svg>
